<?xml version="1.0" encoding="utf-8"?>
<!-- Generator: Adobe Illustrator 19.2.1, SVG Export Plug-In . SVG Version: 6.00 Build 0)  -->
<svg version="1.1" id="Calque_1" xmlns="http://www.w3.org/2000/svg" xmlns:xlink="http://www.w3.org/1999/xlink" x="0px" y="0px"
	 viewBox="0 0 36 32" style="enable-background:new 0 0 36 32;" xml:space="preserve">
<style type="text/css">
	.st0{fill:#E2604A;}
	.st1{fill:none;stroke:#E2604A;stroke-width:3;stroke-linecap:round;stroke-linejoin:round;stroke-miterlimit:10;}
</style>
<g id="_x21_">
	<g>
		<path class="st0" d="M18,3.9l14.4,24.3H3.6L18,3.9 M18,1.9c-0.7,0-1.4,0.4-1.7,1L1.9,27.1c-0.4,0.6-0.4,1.4,0,2c0.4,0.6,1,1,1.7,1
			h28.8c0.7,0,1.4-0.4,1.7-1c0.4-0.6,0.3-1.4,0-2L19.7,2.9C19.4,2.2,18.7,1.9,18,1.9L18,1.9z"/>
	</g>
	<line class="st1" x1="18" y1="13" x2="18" y2="19.2"/>
	<line class="st1" x1="18" y1="23.4" x2="18" y2="23.4"/>
</g>
</svg>
