<?xml version="1.0" encoding="utf-8"?>
<!-- Generator: Adobe Illustrator 19.2.1, SVG Export Plug-In . SVG Version: 6.00 Build 0)  -->
<svg version="1.1" id="Calque_1" xmlns="http://www.w3.org/2000/svg" xmlns:xlink="http://www.w3.org/1999/xlink" x="0px" y="0px"
	 viewBox="0 0 32 32" style="enable-background:new 0 0 32 32;" xml:space="preserve">
<style type="text/css">
	.st0{fill:#9db4c0;}
</style>
<path class="st0" d="M26.8,16c0-1.2,1.4-2.3,3.2-2.7c-0.4-2-1.1-3.8-2.2-5.4c-1.6,1.1-3.3,1.3-4.2,0.4S23,5.8,24,4.2
	c-1.6-1.1-3.4-1.8-5.4-2.2c-0.4,1.9-1.4,3.2-2.7,3.2S13.7,3.9,13.3,2c-2,0.4-3.8,1.1-5.4,2.2C9,5.8,9.3,7.5,8.4,8.4S5.8,9,4.2,8
	C3.1,9.6,2.3,11.4,2,13.3c1.9,0.4,3.2,1.4,3.2,2.7S3.9,18.3,2,18.7c0.4,2,1.1,3.8,2.2,5.4c1.6-1.1,3.3-1.3,4.2-0.4
	C9.3,24.5,9,26.2,8,27.8c1.6,1.1,3.4,1.8,5.4,2.2c0.4-1.9,1.4-3.2,2.7-3.2s2.3,1.4,2.7,3.2c2-0.4,3.8-1.1,5.4-2.2
	c-1.1-1.6-1.3-3.3-0.4-4.2c0.9-0.9,2.6-0.7,4.2,0.4c1.1-1.6,1.8-3.4,2.2-5.4C28.1,18.3,26.8,17.2,26.8,16z M16,22.2
	c-3.4,0-6.2-2.8-6.2-6.2c0-3.4,2.8-6.2,6.2-6.2s6.2,2.8,6.2,6.2C22.2,19.4,19.4,22.2,16,22.2z"/>
</svg>
