<?xml version="1.0" encoding="utf-8"?>
<!-- Generator: Adobe Illustrator 19.2.1, SVG Export Plug-In . SVG Version: 6.00 Build 0)  -->
<svg version="1.1" id="Calque_1" xmlns="http://www.w3.org/2000/svg" xmlns:xlink="http://www.w3.org/1999/xlink" x="0px" y="0px"
	 viewBox="0 0 20 20" style="enable-background:new 0 0 20 20;" xml:space="preserve">
<style type="text/css">
	.st0{fill:#E35F45;}
</style>
<path class="st0" d="M15.9,8.7H8.1c-0.7,0-0.8,0.6-0.8,1.3s0.1,1.3,0.8,1.3h7.7c0.7,0,0.8-0.6,0.8-1.3S16.6,8.7,15.9,8.7z
	 M18.5,15.3H8.1c-0.7,0-0.8,0.6-0.8,1.3c0,0.7,0.1,1.3,0.8,1.3h10.4c0.7,0,0.8-0.6,0.8-1.3C19.3,15.9,19.3,15.3,18.5,15.3z M8.1,4.7
	h10.4c0.7,0,0.8-0.6,0.8-1.3S19.3,2,18.5,2H8.1C7.4,2,7.3,2.6,7.3,3.3S7.4,4.7,8.1,4.7z M3.9,8.7H1.5c-0.7,0-0.8,0.6-0.8,1.3
	s0.1,1.3,0.8,1.3h2.4c0.7,0,0.8-0.6,0.8-1.3S4.6,8.7,3.9,8.7z M3.9,15.3H1.5c-0.7,0-0.8,0.6-0.8,1.3c0,0.7,0.1,1.3,0.8,1.3h2.4
	c0.7,0,0.8-0.6,0.8-1.3C4.7,15.9,4.6,15.3,3.9,15.3z M3.9,2H1.5C0.7,2,0.7,2.6,0.7,3.3s0.1,1.3,0.8,1.3h2.4c0.7,0,0.8-0.6,0.8-1.3
	S4.6,2,3.9,2z"/>
</svg>
