<?xml version="1.0" encoding="utf-8"?>
<!-- Generated by IcoMoon.io -->
<!DOCTYPE svg PUBLIC "-//W3C//DTD SVG 1.1//EN" "http://www.w3.org/Graphics/SVG/1.1/DTD/svg11.dtd">
<svg version="1.1" xmlns="http://www.w3.org/2000/svg" xmlns:xlink="http://www.w3.org/1999/xlink" width="640" height="640" viewBox="0 0 640 640">
<g id="icomoon-ignore">
</g>
<path fill="#fff" d="M320 32c-157.056 0-256 48.384-256 96.032v64c0 29.376 192 192 192 192v192c-0.032 21.888 32 32 64 32s64.032-10.112 64-32v-192c0 0 192-162.624 192-192v-64c0-47.648-98.944-96.032-256-96.032zM320 195.936c-114.912-0.032-196.416-42.656-196.416-58.592-0.064-15.84 81.536-58.592 196.416-58.528 114.88-0.064 196.48 42.688 196.416 58.496 0 15.968-81.504 58.592-196.416 58.624z"></path>
</svg>
