<?xml version="1.0" encoding="utf-8"?>
<!-- Generator: Adobe Illustrator 19.2.1, SVG Export Plug-In . SVG Version: 6.00 Build 0)  -->
<svg version="1.1" id="Calque_1" xmlns="http://www.w3.org/2000/svg" xmlns:xlink="http://www.w3.org/1999/xlink" x="0px" y="0px"
	 viewBox="0 0 13 15" style="enable-background:new 0 0 13 15;" xml:space="preserve">
<style type="text/css">
	.st0{fill-rule:evenodd;clip-rule:evenodd;fill:#7F97A4;}
</style>
<path class="st0" d="M11,2H9c-0.2-1-1-2-2.5-2S4.2,1,4,2H2C0.9,2,0,2.9,0,4v9c0,1.1,0.9,2,2,2h9c1.1,0,2-0.9,2-2V4
	C13,2.9,12.1,2,11,2z M6.5,1.5c0.6,0,1,0.4,1,1c0,0.6-0.4,1-1,1s-1-0.4-1-1C5.5,1.9,5.9,1.5,6.5,1.5z M8,11H3v-1h5V11z M10,9H3V8h7
	V9z M10,7H3V6h7V7z"/>
</svg>
