<?xml version="1.0" encoding="utf-8"?>
<!-- Generator: Adobe Illustrator 19.2.1, SVG Export Plug-In . SVG Version: 6.00 Build 0)  -->
<svg version="1.1" id="Calque_1" xmlns="http://www.w3.org/2000/svg" xmlns:xlink="http://www.w3.org/1999/xlink" x="0px" y="0px"
	 viewBox="0 0 18 14" style="enable-background:new 0 0 18 14;" xml:space="preserve">
<style type="text/css">
	.st0{fill:#7F97A4;}
</style>
<path class="st0" d="M16.5,0H0.9C0.4,0,0,0.4,0,0.9V13c0,0.5,0.4,0.9,0.9,0.9h15.6c0.5,0,0.9-0.4,0.9-0.9V0.9C17.4,0.4,17,0,16.5,0z
	 M15.6,12.2H1.7V1.7h13.9V12.2z M12.4,7.7L9.6,9.1L6.4,3.8l-2.9,6.6h10.4C13.9,10.4,12.4,7.7,12.4,7.7z M11.5,6.1
	c0.6,0,1.1-0.5,1.1-1.1s-0.5-1.1-1.1-1.1S10.4,4.4,10.4,5S10.9,6.1,11.5,6.1z"/>
</svg>
